PathFileType	4	(X/Y/Z)	D:\TRACE\v60_Jaco2_6-2-23\JustBodyDRS_Motion1_2-platform.trc
DataRate	CameraRate	NumFrames	NumMarkers	Units	OrigDataRate	OrigDataStartFrame	OrigNumFrames
100.00	100.00	      24	5	mm	100.00	3478	      6954
Frame#	Time	Left_Front			Right_Front			Left_Aft			Right_Aft			Post			
		X1	Y1	Z1	X2	Y2	Z2	X3	Y3	Z3	X4	Y4	Z4	X5	Y5	Z5	

3478	34.770	-752.70258	0.03764	-641.23950	817.31946	1.55930	-646.81360	-660.59381	13.34496	493.71109	781.66528	13.24579	503.48993	33.41151	1295.20410	-980.12781	
3479	34.780	-752.33136	-0.23191	-641.45459	817.63483	1.09668	-646.89612	-660.58368	14.06608	493.35739	782.16711	13.59882	503.32535	33.52559	1294.81226	-980.81830	
3480	34.790	-751.78418	-0.68587	-641.72748	818.02063	0.91440	-646.85248	-660.11115	13.84459	493.43143	782.44055	13.89810	503.27734	33.57681	1294.40540	-982.11719	
3481	34.800	-751.56445	-0.97175	-641.80231	818.06128	0.64698	-647.05341	-659.92389	14.07704	493.37869	782.71393	14.27410	503.11063	33.76299	1293.76978	-982.93152	
3482	34.810	-751.28625	-1.35659	-641.90125	818.48053	0.08232	-647.00201	-659.36957	14.16490	492.67313	782.89734	14.45675	503.02664	34.56262	1293.13623	-983.94177	
3483	34.820	-750.93573	-1.75556	-641.70013	818.78973	-0.37964	-647.10315	-659.42657	14.81070	493.00082	783.06342	14.71026	503.02777	34.29138	1292.45764	-985.13586	
3484	34.830	-750.84283	-2.29852	-641.65778	818.91907	-0.66133	-647.13599	-659.30713	15.31717	492.93869	783.37512	15.02806	502.98593	34.68370	1292.02649	-985.94312	
3485	34.840	-750.74658	-2.57665	-641.79163	818.92468	-0.97360	-647.30743	-658.88177	15.06991	493.04315	783.40497	15.21837	502.82980	35.00162	1291.65430	-986.59723	
3486	34.850	-750.70355	-2.87804	-641.90472	819.05408	-1.30043	-647.37628	-658.86145	15.26491	492.95465	783.40680	15.40004	502.70868	35.30067	1291.00171	-987.44098	
3487	34.860	-750.78900	-3.19156	-642.12469	819.23334	-1.62798	-647.45758	-658.80939	15.31353	492.91977	783.47321	15.66491	502.64670	35.57566	1290.50500	-987.98248	
3488	34.870	-750.60663	-3.67356	-642.18475	819.42175	-1.96599	-647.56421	-658.64661	15.41509	492.81287	783.55139	15.91571	502.53839	35.34257	1289.83923	-988.43115	
3489	34.880	-750.48358	-3.97524	-642.22827	819.53979	-2.22515	-647.66650	-658.37903	15.72903	492.65756	783.61139	16.14571	502.41473	35.22043	1289.43774	-988.61670	
3490	34.890	-750.44385	-4.28355	-642.36816	819.71405	-2.51514	-647.68616	-658.13190	16.06045	492.53915	783.73108	16.44503	502.25449	35.36878	1288.82727	-989.47589	
3491	34.900	-750.37878	-4.42359	-642.35608	819.67310	-2.97367	-647.81030	-658.11700	16.40038	492.44867	783.77600	16.62618	502.16006	35.34033	1288.23816	-990.26074	
3492	34.910	-750.46771	-4.92562	-642.45813	819.56940	-3.49882	-647.96008	-658.24609	16.67053	492.26633	783.66309	16.84234	502.07376	35.32379	1287.65796	-990.80103	
3493	34.920	-750.56860	-5.49007	-642.36597	819.56403	-3.98189	-647.94238	-658.65002	17.32302	491.66818	783.55463	17.05010	501.94882	35.29713	1287.10889	-991.82751	
3494	34.930	-750.56641	-5.98107	-642.51526	819.53564	-4.36925	-648.00006	-658.54498	17.31853	491.52820	783.65094	17.37170	501.87051	35.22231	1286.69373	-992.86322	
3495	34.940	-750.54236	-6.27442	-642.54889	819.56537	-4.59716	-648.13141	-658.43597	17.34611	491.89502	783.71429	17.70160	501.83530	35.21298	1286.17139	-993.82349	
3496	34.950	-750.50854	-6.68896	-642.62109	819.69659	-4.75845	-648.19653	-658.36456	17.68729	491.85837	783.10974	17.66304	502.01080	35.24461	1285.68921	-994.94598	
3497	34.960	-750.47919	-6.93144	-642.66821	819.66528	-4.98896	-648.21698	-658.36938	17.94007	491.86859	783.23602	17.90375	501.82608	35.08770	1285.05457	-995.71698	
3498	34.970	-750.48901	-7.28086	-642.60687	819.57336	-5.31644	-648.24731	-658.32483	18.00677	491.86319	782.99921	18.08324	501.72192	35.28986	1284.65234	-996.83826	
3499	34.980	-750.56525	-7.63286	-642.84222	819.40778	-5.86121	-648.49255	-658.33508	18.05715	491.87927	783.16986	18.42027	501.73001	35.19764	1284.03271	-997.44940	
3500	34.990	-750.66461	-7.89116	-643.01147	819.16962	-6.29411	-648.67126	-658.46173	18.26956	491.83389	783.39917	18.72868	501.61514	34.98813	1283.50549	-997.63513	
3501	35.000	-750.93408	-8.12949	-643.14569	818.99207	-6.46101	-648.60455	-659.23328	19.28289	491.42310	783.10278	19.13516	501.58054	34.89495	1282.90234	-998.13727	
